<svg id="Layer_5" enable-background="new 0 0 64 64" height="512" viewBox="0 0 64 64" width="512" xmlns="http://www.w3.org/2000/svg" xmlns:xlink="http://www.w3.org/1999/xlink"><linearGradient id="SVGID_1_" gradientUnits="userSpaceOnUse" x1="32" x2="32" y1="63" y2="1"><stop offset="0" stop-color="#9f2fff"/><stop offset="1" stop-color="#0bb1d3"/></linearGradient><path d="m60 49h-5v-12.84c0-1.42.602-2.769 1.65-3.702 2.129-1.896 3.35-4.614 3.35-7.458 0-2.728-1.079-5.277-3.037-7.178-1.958-1.899-4.527-2.899-7.271-2.818-.935.028-1.836.196-2.692.469v-14.473h-35.414l-10.586 10.586v41.414h36v3c0 1.383.945 2.539 2.22 2.884-.139.346-.22.721-.22 1.116 0 1.654 1.346 3 3 3h16c1.654 0 3-1.346 3-3 0-.395-.081-.77-.22-1.116 1.275-.346 2.22-1.501 2.22-2.884v-4c0-1.654-1.346-3-3-3zm-10.248-31.996c2.175-.072 4.251.733 5.818 2.254 1.567 1.52 2.43 3.559 2.43 5.742 0 2.273-.977 4.447-2.68 5.964-1.474 1.312-2.32 3.207-2.32 5.196v12.84h-6v-12.677c0-2.106-.835-4.05-2.291-5.333-1.713-1.51-2.701-3.683-2.709-5.962-.015-4.296 3.462-7.895 7.752-8.024zm-38.752-12.59v6.586h-6.586zm-8 8.586h10v-10h32v13.362c-2.99 1.752-5.013 5.009-5 8.674.01 2.85 1.245 5.566 3.387 7.454 1.025.904 1.613 2.301 1.613 3.833v12.677h-5c-1.302 0-2.402.839-2.816 2h-34.184zm55 48h-16c-.551 0-1-.448-1-1s.449-1 1-1h16c.551 0 1 .448 1 1s-.449 1-1 1zm3-5c0 .552-.449 1-1 1h-2-16-2c-.551 0-1-.448-1-1v-4c0-.552.449-1 1-1h20c.551 0 1 .448 1 1zm-23-30c0-4.746-3.027-8.787-7.246-10.326 1.367-1.101 2.246-2.786 2.246-4.674 0-3.309-2.691-6-6-6s-6 2.691-6 6c0 1.888.879 3.573 2.246 4.674-4.219 1.539-7.246 5.58-7.246 10.326v5h22zm-10.042-2.372-.958.958-.958-.958.662-6.613c.099-.003.196-.015.296-.015s.197.012.296.015zm-4.958-12.628c0-2.206 1.794-4 4-4s4 1.794 4 4-1.794 4-4 4-4-1.794-4-4zm13 18h-18v-3c0-4.153 2.832-7.649 6.663-8.681l-.705 7.054 3.042 3.041 3.042-3.042-.705-7.054c3.831 1.033 6.663 4.529 6.663 8.682zm12 .414-3.707-3.707 1.414-1.414 2.293 2.293 6.293-6.293 1.414 1.414zm-29.707 6.879 1.414 1.414-7.707 7.707-3.707-3.707 1.414-1.414 2.293 2.293zm30.707 8.707h2v2h-2zm0-4h2v2h-2zm0-4h2v2h-2zm-44 12h18v-16h-18zm2-14h14v12h-14zm29.777 9.482c-.65 1.18-1.387 2.518-2.777 2.518-1.436 0-2.02-1.25-2.406-2.077-.172-.367-.431-.923-.594-.923-.153.077-.359.593-.469.87-.318.797-.848 2.13-2.327 2.13-1.478 0-2.062-1.457-2.53-2.629-.177-.44-.505-1.26-.719-1.382l.045-1.989c1.478 0 2.061 1.457 2.53 2.628.177.44.505 1.261.719 1.383.108-.088.314-.604.424-.881.317-.797.848-2.13 2.327-2.13 1.436 0 2.02 1.25 2.406 2.077.172.367.431.923.594.923.252-.079.755-.992 1.025-1.482.65-1.18 1.387-2.518 2.777-2.518 1.477 0 2.059 1.458 2.527 2.629.176.44.503 1.26.717 1.383l1.954-.012v2h-2c-1.477 0-2.059-1.458-2.527-2.629-.176-.44-.503-1.26-.717-1.383-.205.091-.709 1.004-.979 1.494zm6.223-5.482h-2v-2h2zm-6-2h2v2h-2zm-4 2v-2h2v2zm-19-8h-9v-2h9zm0-4h-9v-2h9zm0-4h-9v-2h9zm0-4h-9v-2h9zm29-12h-2v-2h2zm-4 0h-2v-2h2zm-4 0h-2v-2h2zm18 46h2v2h-2zm-4 0h2v2h-2zm-4 0h2v2h-2z" fill="url(#SVGID_1_)"/></svg>