<svg height="496pt" viewBox="0 0 496 496" width="496pt" xmlns="http://www.w3.org/2000/svg"><path d="m392 120c0 8.835938-7.164062 16-16 16h-232c-8.835938 0-16-7.164062-16-16v-112h-48l-72 72v408h480v-480h-96zm-344 344c-8.835938 0-16-7.164062-16-16s7.164062-16 16-16 16 7.164062 16 16-7.164062 16-16 16zm0-344c-8.835938 0-16-7.164062-16-16s7.164062-16 16-16 16 7.164062 16 16-7.164062 16-16 16zm200 48c44.183594 0 80 35.816406 80 80s-35.816406 80-80 80-80-35.816406-80-80 35.816406-80 80-80zm200-80c8.835938 0 16 7.164062 16 16s-7.164062 16-16 16-16-7.164062-16-16 7.164062-16 16-16zm0 344c8.835938 0 16 7.164062 16 16s-7.164062 16-16 16-16-7.164062-16-16 7.164062-16 16-16zm-360 16" fill="#00ddc2"/><path d="m248 328c44.183594 0 80-35.816406 80-80s-35.816406-80-80-80-80 35.816406-80 80 35.816406 80 80 80zm.921875-96c8.8125.519531 15.539063 8.085938 15.027344 16.898438-.511719 8.816406-8.070313 15.550781-16.882813 15.046874-8.816406-.5-15.558594-8.050781-15.066406-16.867187.238281-4.242187 2.15625-8.222656 5.328125-11.050781 3.175781-2.828125 7.347656-4.277344 11.59375-4.027344zm-56.921875-8h24v40h-24zm0 0" fill="#414042"/><path d="m247.078125 264c8.816406.492188 16.367187-6.25 16.867187-15.066406.503907-8.8125-6.230468-16.371094-15.046874-16.882813-8.8125-.511719-16.378907 6.214844-16.898438 15.027344-.25 4.246094 1.199219 8.417969 4.027344 11.59375 2.828125 3.171875 6.808594 5.089844 11.050781 5.328125zm0 0" fill="#d1d3d4"/><path d="m64 104c0 8.835938-7.164062 16-16 16s-16-7.164062-16-16 7.164062-16 16-16 16 7.164062 16 16zm0 0" fill="#d1d3d4"/><path d="m464 104c0 8.835938-7.164062 16-16 16s-16-7.164062-16-16 7.164062-16 16-16 16 7.164062 16 16zm0 0" fill="#d1d3d4"/><path d="m64 448c0 8.835938-7.164062 16-16 16s-16-7.164062-16-16 7.164062-16 16-16 16 7.164062 16 16zm0 0" fill="#d1d3d4"/><path d="m464 448c0 8.835938-7.164062 16-16 16s-16-7.164062-16-16 7.164062-16 16-16 16 7.164062 16 16zm0 0" fill="#d1d3d4"/><path d="m144 136h232c8.835938 0 16-7.164062 16-16v-112h-264v112c0 8.835938 7.164062 16 16 16zm176-104h40v24h-40zm-160 16h8v-16h32v16h8v64h-48zm0 0" fill="#d1d3d4"/><path d="m208 48h-8v-16h-32v16h-8v64h48zm0 0" fill="#d1d3d4"/><path d="m320 32h40v24h-40zm0 0" fill="#d1d3d4"/><path d="m192 224h24v40h-24zm0 0" fill="#d1d3d4"/><g fill="#231f20"><path d="m488 0h-408c-2.121094 0-4.15625.84375-5.65625 2.34375l-72 72c-1.5 1.5-2.34375 3.535156-2.34375 5.65625v408c0 4.417969 3.582031 8 8 8h480c4.417969 0 8-3.582031 8-8v-480c0-4.417969-3.582031-8-8-8zm-104 16v104c0 4.417969-3.582031 8-8 8h-232c-4.417969 0-8-3.582031-8-8v-104zm96 464h-464v-396.6875l67.3125-67.3125h36.6875v104c0 13.253906 10.746094 24 24 24h232c13.253906 0 24-10.746094 24-24v-104h80zm0 0"/><path d="m248 336c48.601562 0 88-39.398438 88-88s-39.398438-88-88-88-88 39.398438-88 88c.058594 48.578125 39.421875 87.941406 88 88zm0-160c39.765625 0 72 32.234375 72 72s-32.234375 72-72 72-72-32.234375-72-72c.042969-39.746094 32.253906-71.957031 72-72zm0 0"/><path d="m247.078125 264c8.816406.492188 16.367187-6.25 16.867187-15.066406.503907-8.8125-6.230468-16.371094-15.046874-16.882813-8.8125-.511719-16.378907 6.214844-16.898438 15.027344-.25 4.246094 1.199219 8.417969 4.027344 11.59375 2.828125 3.171875 6.808594 5.089844 11.050781 5.328125zm0 0"/><path d="m48 80c-13.253906 0-24 10.746094-24 24s10.746094 24 24 24 24-10.746094 24-24-10.746094-24-24-24zm0 32c-4.417969 0-8-3.582031-8-8s3.582031-8 8-8 8 3.582031 8 8-3.582031 8-8 8zm0 0"/><path d="m448 128c13.253906 0 24-10.746094 24-24s-10.746094-24-24-24-24 10.746094-24 24 10.746094 24 24 24zm0-32c4.417969 0 8 3.582031 8 8s-3.582031 8-8 8-8-3.582031-8-8 3.582031-8 8-8zm0 0"/><path d="m48 424c-13.253906 0-24 10.746094-24 24s10.746094 24 24 24 24-10.746094 24-24-10.746094-24-24-24zm0 32c-4.417969 0-8-3.582031-8-8s3.582031-8 8-8 8 3.582031 8 8-3.582031 8-8 8zm0 0"/><path d="m448 472c13.253906 0 24-10.746094 24-24s-10.746094-24-24-24-24 10.746094-24 24 10.746094 24 24 24zm0-32c4.417969 0 8 3.582031 8 8s-3.582031 8-8 8-8-3.582031-8-8 3.582031-8 8-8zm0 0"/><path d="m160 120h48c4.417969 0 8-3.582031 8-8v-64c0-4.417969-3.582031-8-8-8v-8c0-4.417969-3.582031-8-8-8h-32c-4.417969 0-8 3.582031-8 8v8c-4.417969 0-8 3.582031-8 8v64c0 4.417969 3.582031 8 8 8zm8-64c4.417969 0 8-3.582031 8-8v-8h16v8c0 4.417969 3.582031 8 8 8v48h-32zm0 0"/><path d="m320 64h40c4.417969 0 8-3.582031 8-8v-24c0-4.417969-3.582031-8-8-8h-40c-4.417969 0-8 3.582031-8 8v24c0 4.417969 3.582031 8 8 8zm8-24h24v8h-24zm0 0"/><path d="m224 264v-40c0-4.417969-3.582031-8-8-8h-24c-4.417969 0-8 3.582031-8 8v40c0 4.417969 3.582031 8 8 8h24c4.417969 0 8-3.582031 8-8zm-16-8h-8v-24h8zm0 0"/><path d="m88 440c-4.417969 0-8 3.582031-8 8s3.582031 8 8 8h320c4.417969 0 8-3.582031 8-8s-3.582031-8-8-8zm0 0"/></g></svg>