<?xml version="1.0"?>
<svg xmlns="http://www.w3.org/2000/svg" height="512px" viewBox="0 0 56 60" width="512px"><g><g id="Page-1" fill="none" fill-rule="evenodd"><g id="031---mobile-like" fill="rgb(0,0,0)" fill-rule="nonzero"><path id="Shape" d="m0 4v52c0 2.209139 1.790861 4 4 4h28c2.209139 0 4-1.790861 4-4v-10.226c.4856932-.1658122.9206098-.4536905 1.263-.836l4.892-5.6c.1906275-.2158283.4650422-.3390052.753-.338h6.092c3.8641657-.0044086 6.9955914-3.1358343 7-7v-17c-.0044086-3.8641657-3.1358343-6.99559136-7-7h-13v-4c0-2.209139-1.790861-4-4-4h-28c-2.209139 0-4 1.790861-4 4zm32 54h-28c-1.1045695 0-2-.8954305-2-2v-1.556c.60534654.3599241 1.29574677.5518554 2 .556h28c.7042532-.0041446 1.3946535-.1960759 2-.556v1.556c0 1.1045695-.8954305 2-2 2zm22-43v17c-.0033061 2.7600532-2.2399468 4.9966939-5 5h-6.092c-.8656122-.0002367-1.6891386.3734307-2.259 1.025l-4.89 5.595c-.1959662.2103375-.4705203.3297904-.758.3297904s-.5620338-.1194529-.758-.3297904l-4.892-5.6c-.5707814-.6497123-1.3941791-1.0214988-2.259-1.02h-6.092c-2.7600532-.0033061-4.9966939-2.2399468-5-5v-17c.0033061-2.7600532 2.2399468-4.9966939 5-5h28c2.7600532.0033061 4.9966939 2.2399468 5 5zm-28.308-13-1.282 1.368c-.378896.40269492-.907076.63133176-1.46.632h-9.9c-.5527743.00000995-1.0809024-.22876112-1.459-.632l-1.282-1.368zm-23.692 2c0-1.1045695.8954305-2 2-2h3.567l2.565 2.735c.7567936.80574999 1.8125738 1.2634477 2.918 1.265h9.9c1.1054015-.00208587 2.1611681-.45925919 2.919-1.264l2.564-2.736h3.567c1.1045695 0 2 .8954305 2 2v4h-13c-3.8641657.00440864-6.9955914 3.1358343-7 7v17c.0044086 3.8641657 3.1358343 6.9955914 7 7h6.092c.2885902.0000052.5631076.1246864.753.342l4.894 5.6c.3420673.3808385.7762984.6673416 1.261.832v5.226c0 1.1045695-.8954305 2-2 2h-28c-1.1045695 0-2-.8954305-2-2z" data-original="#000000" class="active-path" data-old_color="#000000" fill="#006AA8"/><path id="Shape" d="m31.438 21.707c-.4123362.6120376-1.0418071 1.0445531-1.761 1.21-.3673191-.5702814-.9986624-.9155061-1.677-.917h-2c-1.1045695 0-2 .8954305-2 2v7c0 1.1045695.8954305 2 2 2h2c.6551708-.0012047 1.2682083-.3232268 1.641-.862 3.0919827.5342254 6.2214547.8224619 9.359.862h2c1.6568542 0 3-1.3431458 3-3-.0029438-.5168022-.1408282-1.0238723-.4-1.471 1.3621357-.8420957 1.8056041-2.6159693 1-4 1.130832-.7106322 1.6542232-2.0843307 1.2829609-3.367274s-1.5473825-2.1648317-2.8829609-2.161726h-3.568c.3781437-1.2996338.5693947-2.6464718.568-4v-.185c-.016673-1.3297229-1.0512933-2.4239491-2.378-2.515-1.3708956-.1352202-2.6225429.7866829-2.9 2.136-.6449016 2.6026845-1.757666 5.0664208-3.284 7.271zm-5.438 9.293v-7h2v7zm10.681-16.142c.0637519-.3610699.3991127-.6089644.763-.564.1523514.0012063.2976597.0643256.4025255.1748496.1048657.110524.1602688.2589458.1534745.4111504v.12c.0178476 1.563553-.2885989 3.1138318-.9 4.553-.1553431.3108588-.1381628.6800764.0453763.9751664.183539.2950901.5071168.4737357.8546237.4718336h5c.5522847 0 1 .4477153 1 1s-.4477153 1-1 1h-2c-.5522847 0-1 .4477153-1 1s.4477153 1 1 1h1c.5522847 0 1 .4477153 1 1s-.4477153 1-1 1h-2c-.5522847 0-1 .4477153-1 1s.4477153 1 1 1h1c.5522847 0 1 .4477153 1 1s-.4477153 1-1 1h-2c-3.0168915-.043787-6.0258725-.3209476-9-.829v-5.281c1.265846-.2549086 2.3799077-.9991737 3.1-2.071 1.6683174-2.4135597 2.8818877-5.1114745 3.581-7.961z" data-original="#000000" class="active-path" data-old_color="#000000" fill="#006AA8"/></g></g></g> </svg>
